{
  "accessors": [
    {
      "bufferView": 3,
      "componentType": 5126,
      "count": 525,
      "max": [
        0.21406692266464233,
        0.35867735743522644,
        0.34869617223739624
      ],
      "min": [
        -0.21406692266464233,
        0.0004406394436955452,
        -1.1125166416168213
      ],
      "type": "VEC3"
    },
    {
      "bufferView": 3,
      "byteOffset": 6300,
      "componentType": 5126,
      "count": 525,
      "max": [
        0.996435821056366,
        1.0,
        0.9982128143310547
      ],
      "min": [
        -0.9964358806610107,
        -1.0,
        -0.9803405404090881
      ],
      "type": "VEC3"
    },
    {
      "bufferView": 2,
      "componentType": 5126,
      "count": 525,
      "max": [
        0.9779013991355896,
        0.9829666018486023
      ],
      "min": [
        0.022466573864221573,
        0.017182182520627975
      ],
      "type": "VEC2"
    },
    {
      "bufferView": 1,
      "componentType": 5125,
      "count": 2172,
      "type": "SCALAR"
    },
    {
      "bufferView": 5,
      "componentType": 5126,
      "count": 12,
      "max": [
        1.0,
        0.3083037734031677,
        1.0,
        0.0,
        1.0,
        1.0,
        1.0,
        0.0,
        0.9857439994812012,
        1.0,
        1.0,
        0.0,
        0.24976329505443573,
        0.23056969046592712,
        0.08215919137001038,
        1.0
      ],
      "min": [
        -1.9470715528768778e-07,
        -0.30830371379852295,
        -0.9511907696723938,
        0.0,
        -0.16770152747631073,
        -1.468334517085168e-06,
        -4.371106854250684e-08,
        0.0,
        -0.9857439398765564,
        -1.0000001192092896,
        -0.03895670175552368,
        0.0,
        -0.24976329505443573,
        -0.9765810370445251,
        -0.15036876499652863,
        1.0
      ],
      "type": "MAT4"
    },
    {
      "bufferView": 0,
      "componentType": 5123,
      "count": 525,
      "type": "VEC4"
    },
    {
      "bufferView": 4,
      "componentType": 5126,
      "count": 525,
      "max": [
        1.0,
        0.5,
        0.1666666716337204,
        0.0
      ],
      "min": [
        0.5,
        0.0,
        0.0,
        0.0
      ],
      "type": "VEC4"
    }
  ],
  "asset": {
    "extras": {
      "author": "waririn_nya (https://sketchfab.com/waririn_nya)",
      "license": "CC-BY-4.0 (http://creativecommons.org/licenses/by/4.0/)",
      "source": "https://sketchfab.com/3d-models/mouse-low-poly-chibi-f62b5418c64d4917832acfa62cd38b7c",
      "title": "Mouse low poly -Chibi-"
    },
    "generator": "Sketchfab-15.53.0",
    "version": "2.0"
  },
  "bufferViews": [
    {
      "buffer": 0,
      "byteLength": 4200,
      "byteStride": 8,
      "name": "shortBufferViews",
      "target": 34962
    },
    {
      "buffer": 0,
      "byteLength": 8688,
      "byteOffset": 4200,
      "name": "floatBufferViews",
      "target": 34963
    },
    {
      "buffer": 0,
      "byteLength": 4200,
      "byteOffset": 12888,
      "byteStride": 8,
      "name": "floatBufferViews",
      "target": 34962
    },
    {
      "buffer": 0,
      "byteLength": 12600,
      "byteOffset": 17088,
      "byteStride": 12,
      "name": "floatBufferViews",
      "target": 34962
    },
    {
      "buffer": 0,
      "byteLength": 8400,
      "byteOffset": 29688,
      "byteStride": 16,
      "name": "floatBufferViews",
      "target": 34962
    },
    {
      "buffer": 0,
      "byteLength": 768,
      "byteOffset": 38088,
      "name": "floatBufferViews"
    }
  ],
  "buffers": [
    {
      "byteLength": 38856,
      "uri": "scene.bin"
    }
  ],
  "extensionsUsed": [
    "KHR_materials_unlit"
  ],
  "images": [
    {
      "uri": "textures/T_raton_baseColor.png"
    }
  ],
  "materials": [
    {
      "doubleSided": true,
      "extensions": {
        "KHR_materials_unlit": {}
      },
      "name": "T_raton",
      "pbrMetallicRoughness": {
        "baseColorTexture": {
          "index": 0
        },
        "metallicFactor": 0.0
      }
    }
  ],
  "meshes": [
    {
      "name": "Object_0",
      "primitives": [
        {
          "attributes": {
            "JOINTS_0": 5,
            "NORMAL": 1,
            "POSITION": 0,
            "TEXCOORD_0": 2,
            "WEIGHTS_0": 6
          },
          "indices": 3,
          "material": 0,
          "mode": 4
        }
      ]
    }
  ],
  "nodes": [
    {
      "children": [
        1
      ],
      "matrix": [
        1.0,
        0.0,
        0.0,
        0.0,
        0.0,
        2.220446049250313e-16,
        -1.0,
        0.0,
        0.0,
        1.0,
        2.220446049250313e-16,
        0.0,
        0.0,
        0.0,
        0.0,
        1.0
      ],
      "name": "Sketchfab_model"
    },
    {
      "children": [
        2
      ],
      "name": "root"
    },
    {
      "children": [
        3
      ],
      "matrix": [
        1.0,
        0.0,
        0.0,
        0.0,
        0.0,
        2.220446049250313e-16,
        1.0,
        0.0,
        0.0,
        -1.0,
        2.220446049250313e-16,
        0.0,
        0.0,
        0.0,
        0.0,
        1.0
      ],
      "name": "GLTF_SceneRootNode"
    },
    {
      "children": [
        4
      ],
      "name": "metarig.001_14"
    },
    {
      "children": [
        5,
        7,
        6
      ],
      "name": "GLTF_created_0"
    },
    {
      "children": [
        8
      ],
      "name": "GLTF_created_0_rootJoint"
    },
    {
      "name": "raton_13"
    },
    {
      "mesh": 0,
      "name": "Object_7",
      "skin": 0
    },
    {
      "children": [
        9,
        12
      ],
      "name": "Root_12",
      "rotation": [
        0.49933359026908875,
        0.49933356046676636,
        0.500665545463562,
        0.5006656646728516
      ],
      "scale": [
        1.0,
        0.9999999403953552,
        0.9999999403953552
      ],
      "translation": [
        0.0,
        0.057685643434524536,
        -0.23057052493095398
      ]
    },
    {
      "children": [
        10,
        11
      ],
      "name": "cuerpo.001_4",
      "rotation": [
        -0.14615583419799805,
        1.0978965292451903e-07,
        -6.606758518046263e-08,
        0.9892616271972656
      ],
      "scale": [
        1.0,
        0.9999999403953552,
        0.9999999403953552
      ],
      "translation": [
        0.09268317371606827,
        0.27556824684143066,
        -0.027156241238117218
      ]
    },
    {
      "name": "oreja.L.001_2",
      "rotation": [
        0.7082318663597107,
        0.5904541015625,
        0.2832801640033722,
        0.26367396116256714
      ],
      "scale": [
        1.0,
        0.9999999403953552,
        1.0000001192092896
      ],
      "translation": [
        0.07809721678495407,
        0.17607802152633667,
        0.1512056440114975
      ]
    },
    {
      "name": "oreja.R.001_3",
      "rotation": [
        -0.07014947384595871,
        0.08485067635774612,
        -0.7595519423484802,
        0.6410619020462036
      ],
      "scale": [
        0.9999999403953552,
        0.9999999403953552,
        1.0
      ],
      "translation": [
        0.08778880536556244,
        0.1760779768228531,
        -0.15120559930801392
      ]
    },
    {
      "children": [
        13
      ],
      "name": "cuerpo.002_11",
      "rotation": [
        -0.707106351852417,
        0.000942390353884548,
        -0.7071060538291931,
        0.0009413525112904608
      ],
      "scale": [
        0.9999998807907104,
        0.9999997615814209,
        1.0
      ],
      "translation": [
        0.09268318116664886,
        0.2669123709201813,
        0.0007110504084266722
      ]
    },
    {
      "children": [
        14
      ],
      "name": "cola.001_10",
      "rotation": [
        0.24427098035812378,
        0.04314618930220604,
        0.16850470006465912,
        0.9539791941642761
      ],
      "scale": [
        0.9999999403953552,
        1.0,
        1.0
      ],
      "translation": [
        -3.428892014767371e-08,
        0.33324509859085083,
        -0.13412965834140778
      ]
    },
    {
      "children": [
        15
      ],
      "name": "cola.002_9",
      "rotation": [
        0.24427032470703125,
        0.11881984770298004,
        0.1270325779914856,
        0.9539793133735657
      ],
      "scale": [
        0.9999999403953552,
        0.9999999403953552,
        1.0
      ],
      "translation": [
        -7.450580596923828e-09,
        0.13593578338623047,
        1.3821936650781907e-11
      ]
    },
    {
      "children": [
        16
      ],
      "name": "cola.003_8",
      "rotation": [
        0.24427026510238647,
        0.16524963080883026,
        0.05429545044898987,
        0.9539793729782104
      ],
      "scale": [
        0.9999999403953552,
        0.9999999403953552,
        1.0
      ],
      "translation": [
        -1.4901161193847656e-08,
        0.1359357237815857,
        1.4901162970204496e-08
      ]
    },
    {
      "children": [
        17
      ],
      "name": "cola.004_7",
      "rotation": [
        -0.22857066988945007,
        0.1661190241575241,
        0.05157444253563881,
        0.9578621983528137
      ],
      "scale": [
        0.9999999403953552,
        1.0,
        1.0
      ],
      "translation": [
        0.0,
        0.13593581318855286,
        -2.9802320611338473e-08
      ]
    },
    {
      "children": [
        18
      ],
      "name": "cola.005_6",
      "rotation": [
        -0.3944641947746277,
        -0.29391685128211975,
        -0.5030821561813354,
        0.7105767130851746
      ],
      "translation": [
        2.9802322387695313e-08,
        0.1359359622001648,
        -1.8626438169633275e-09
      ]
    },
    {
      "name": "cola.006_5",
      "rotation": [
        -0.39446428418159485,
        0.27153488993644714,
        -0.5155069828033447,
        0.7105767726898193
      ],
      "translation": [
        0.0,
        0.13593566417694092,
        1.3877787807814457e-15
      ]
    }
  ],
  "samplers": [
    {
      "magFilter": 9729,
      "minFilter": 9987,
      "wrapS": 10497,
      "wrapT": 10497
    }
  ],
  "scene": 0,
  "scenes": [
    {
      "name": "Sketchfab_Scene",
      "nodes": [
        0
      ]
    }
  ],
  "skins": [
    {
      "inverseBindMatrices": 4,
      "joints": [
        5,
        8,
        9,
        10,
        11,
        12,
        13,
        14,
        15,
        16,
        17,
        18
      ],
      "skeleton": 5
    }
  ],
  "textures": [
    {
      "sampler": 0,
      "source": 0
    }
  ]
}
